# xmcd
#
# Track frame offsets:
#	150
#	12238
#	24601
#	41944
#	55878
#	76926
#	91452
#	105564
#	119538
#	136490
#	158803
#
# Disc length: 2441 seconds
#
# Revision: 3398903106
# Processed by: cddbd v1.5.2PL0 Copyright (c) Steve Scherf et al.
# Submitted via: EZCDAudioConverter 8.0.7.1
#
DISCID=8d09870b
DTITLE=Asleep At The Wheel - New Routes
DYEAR=2018
DGENRE=Country
TTITLE0=Asleep At The Wheel - Jack I'm Mellow
TTITLE1=Asleep At The Wheel - Pencil Full Of Lead
TTITLE2=Asleep At The Wheel - Call It A Day Tonight
TTITLE3=Asleep At The Wheel - Seven Nights To Rock
TTITLE4=Asleep At The Wheel - Dublin Blues
TTITLE5=Asleep At The Wheel - I Am Blue
TTITLE6=Asleep At The Wheel - Pass The Bottle Around
TTITLE7=Asleep At The Wheel - Big River
TTITLE8=Asleep At The Wheel - Weary Rambler
TTITLE9=Asleep At The Wheel - More Days Like This
TTITLE10=Asleep At The Wheel Feat. Seth Avett and Scott Avett - Willie Got There
TTITLE10=First
EXTD=
EXTT0=
EXTT1=
EXTT2=
EXTT3=
EXTT4=
EXTT5=
EXTT6=
EXTT7=
EXTT8=
EXTT9=
EXTT10=
PLAYORDER=
